<svg xmlns="http://www.w3.org/2000/svg"
 xmlns:xlink="http://www.w3.org/1999/xlink"
 width="34px" height="23px"  viewBox="0 0 34 23">
<path fill-rule="evenodd"  fill="#ffffff"
 d="M6.0874023,10.49939 C6.0874023,10.49939 17.98169,18.277527 17.98169,18.277527 C18.920105,18.891357 18.920105,19.88623 17.98169,20.500122 C17.043274,21.113525 15.52179,21.113525 14.583374,20.500122 C14.583374,20.500122 2.6890259,12.721558 2.6890259,12.721558 C1.7506104,12.108093 1.7506104,11.11322 2.6890259,10.49939 C3.6274414,9.885742 5.148926,9.885742 6.0874023,10.49939 ZM27.847412,10.453369 C27.847412,10.453369 15.872864,18.283936 15.872864,18.283936 C14.928162,18.90155 14.928162,19.903503 15.872864,20.521118 C16.817688,21.138977 18.349487,21.138977 19.29419,20.521118 C19.29419,20.521118 31.268616,12.690552 31.268616,12.690552 C32.21344,12.072754 32.21344,11.070984 31.268616,10.453369 C30.323914,9.83551 28.792114,9.83551 27.847412,10.453369 ZM8.9973755,2.3632202 C8.9973755,2.3632202 17.719849,8.02002 17.719849,8.02002 C18.408081,8.466492 18.408081,9.190063 17.719849,9.6362915 C17.031677,10.08252 15.915894,10.08252 15.227783,9.6362915 C15.227783,9.6362915 6.50531,3.9794922 6.50531,3.9794922 C5.8170776,3.5327759 5.8170776,2.8094482 6.50531,2.3632202 C7.1934204,1.916748 8.309265,1.916748 8.9973755,2.3632202 ZM24.95465,2.3295898 C24.95465,2.3295898 16.173523,8.024414 16.173523,8.024414 C15.480713,8.473999 15.480713,9.202393 16.173523,9.65155 C16.866333,10.101074 17.989563,10.101074 18.682373,9.65155 C18.682373,9.65155 27.463684,3.956726 27.463684,3.956726 C28.156494,3.5073242 28.156494,2.7789307 27.463684,2.3295898 C26.770874,1.8804932 25.647522,1.8804932 24.95465,2.3295898 Z"/>
</svg>